<svg height="1128pt" preserveAspectRatio="xMidYMid meet" viewBox="0 0 1184 1128" width="1184pt" xmlns="http://www.w3.org/2000/svg"><g transform="matrix(.1 0 0 -.1 0 1128)"><path d="m3482 9948c-63-21-110-81-182-232-124-258-223-556-275-831-70-365-88-850-46-1220 51-449 96-592 152-483 122 240 979 747 1845 1091 481 192 868 297 1090 297 107 0 111 4 65 67-32 44-285 265-456 398-410 320-955 613-1430 769-356 118-667 177-763 144z"/><path d="m4425 7299c-33-4-85-12-115-18-54-9-53-10 20-4 289 20 676-124 875-326 45-46 78-82 85-96 3-6 9-9 15-7 5 2 7 0 3-3-11-11 11-47 24-39 6 4 8 3 5-3-3-5 5-27 19-47 41-60 22-51-36 17-80 93-190 197-256 242-33 22-61 43-64 47-3 3-41 24-85 46-212 106-294 126-510 127-201 0-287-18-440-90-113-54-231-140-310-226-54-59-135-171-135-186 0-7-4-13-9-13s-13-9-16-20c-4-11-11-18-16-15s-6-1-3-9-4-24-15-35c-12-12-20-24-19-28 1-5-6-25-15-46-57-132-69-427-25-602 62-242 153-409 323-593 34-37 87-85 118-107s56-42 56-45-19-19-42-36c-60-45-233-198-598-531-210-192-212-197-174-370 52-233 358-1438 426-1678 49-170 55-184 99-209 31-19 52-21 180-21 117 0 154 4 193 18 52 21 64 34 266 302 230 304 415 508 566 622 139 105 196 136 439 241 60 26 111 53 114 61s-132 149-325 340c-378 375-543 552-763 816-95 114-300 380-300 389 0 3 42-15 93-39 232-112 501-140 742-79 99 25 262 82 323 113 280 142 523 449 607 764 138 516-98 1005-601 1247-223 107-507 158-719 129zm995-653c0-12-14 5-31 39-8 16-6 15 10-4 12-13 21-28 21-35z"/><path d="m4208 7263c6-2 18-2 25 0 6 3 1 5-13 5s-19-2-12-5z"/><path d="m4146 7251c-4-5 3-7 14-4 23 6 26 13 6 13-8 0-17-4-20-9z"/><path d="m8090 6769c-336-27-530-45-535-50-2-3 9-38 26-79 145-357 298-927 439-1635 18-88 33-161 34-163 2-1 38 14 82 34 109 51 225 89 352 115 99 21 133 23 437 24 182 0 414-2 516-5l185-5 37 28c44 34 144 166 165 219 14 36 14 39-10 75-24 35-94 115-207 238-25 28-114 124-196 215-83 90-157 171-165 180s-60 65-115 126c-55 60-129 141-165 179-36 39-90 97-120 130-194 212-349 370-377 381-40 17-101 16-383-7z"/><path d="m6174 6396c-53-45-53-43 176-511 171-349 205-422 315-670 89-202 116-263 220-508 54-125 106-239 117-252 29-37 81-33 165 10 65 34 71 35 121 26 29-6 83-23 120-37 71-28 321-150 335-163 4-5-14-17-40-29-26-11-92-41-146-66-55-26-113-53-130-60-18-7-174-79-347-159-872-402-1243-568-1370-614l-65-24 48 3c46 3 47 3 25-14-13-10-26-18-30-18-23 0 3-52 102-195 61-88 118-166 128-173 13-11 47-12 153-7 192 9 214 2 349-122 57-52 139-140 181-194 96-124 200-248 228-273 25-23 71-23 124-1 48 20 57 19 57-6 0-42 152-7 350 82 98 44 617 306 698 353 35 19 82 41 105 47l42 12-37 17c-21 9-40 19-43 22s20 21 50 42c48 32 55 40 55 69 0 44-19 109-74 257-40 106-51 154-75 314-21 139-26 199-19 223 5 20 41 67 88 118 44 46 82 95 86 110 4 18-3 46-24 93-16 37-54 120-82 185-29 64-57 117-61 117-5 0-9 24-9 53 0 71-6 80-378 622-211 307-741 1065-810 1158-36 48-78 95-93 103-29 14-195 43-409 70-151 19-164 18-196-10z"/><path d="m7330 2170c-14-4-41-8-60-9-46-1-169-49-200-78-14-12-33-29-43-36-18-12-16-16 21-63 47-59 87-96 212-194 253-198 373-311 664-625 212-229 213-230 252-228 42 1 206 62 258 95l31 19-27-7c-47-11-87 33-196 218-80 136-212 386-212 401 0 3-16 39-35 80s-35 79-35 83c-1 5-9 27-20 49s-19 44-20 49c0 14-70 126-94 149-56 59-107 81-216 94-118 14-242 15-280 3z"/></g></svg>